{
copyright = "Copyright \U00A9 2013 by Viktor Suszter. All rights reserved.";
date = "2013-05-23 12:15:12 +0000";
designer = "Viktor Suszter";
designerURL = "http://ttff2355.com";
familyName = "Apple Product Icons";
fontMaster = (
{
ascender = 800;
capHeight = 700;
descender = "-200";
id = "89B20C2D-044E-4E5A-A925-3C21DF4F2314";
xHeight = 500;
}
);
glyphs = (
{
glyphname = B;
lastChange = "2013-05-29 09:14:17 +0100";
layers = (
{
guideLines = (
{
position = "{207, 189}";
},
{
position = "{-145, -130}";
showMeasurement = 1;
},
{
position = "{-318, 0}";
}
);
layerId = "89B20C2D-044E-4E5A-A925-3C21DF4F2314";
name = Regular;
paths = (
{
closed = 1;
nodes = (
"191 277 OFFCURVE",
"167 301 OFFCURVE",
"137 301 CURVE SMOOTH",
"54 301 LINE SMOOTH",
"24 301 OFFCURVE",
"0 277 OFFCURVE",
"0 247 CURVE SMOOTH",
"0 55 LINE SMOOTH",
"0 25 OFFCURVE",
"24 1 OFFCURVE",
"54 1 CURVE SMOOTH",
"137 1 LINE SMOOTH",
"167 1 OFFCURVE",
"191 25 OFFCURVE",
"191 55 CURVE SMOOTH",
"191 247 LINE SMOOTH"
);
},
{
closed = 1;
nodes = (
"86 22 OFFCURVE",
"75 33 OFFCURVE",
"75 47 CURVE SMOOTH",
"75 61 OFFCURVE",
"86 72 OFFCURVE",
"100 72 CURVE SMOOTH",
"114 72 OFFCURVE",
"125 61 OFFCURVE",
"125 47 CURVE SMOOTH",
"125 33 OFFCURVE",
"114 22 OFFCURVE",
"100 22 CURVE SMOOTH"
);
},
{
closed = 1;
nodes = (
"159 103 OFFCURVE",
"148 92 OFFCURVE",
"134 92 CURVE SMOOTH",
"59 92 LINE SMOOTH",
"45 92 OFFCURVE",
"34 103 OFFCURVE",
"34 117 CURVE SMOOTH",
"34 244 LINE SMOOTH",
"34 258 OFFCURVE",
"45 269 OFFCURVE",
"59 269 CURVE SMOOTH",
"134 269 LINE SMOOTH",
"148 269 OFFCURVE",
"159 258 OFFCURVE",
"159 244 CURVE SMOOTH",
"159 117 LINE SMOOTH"
);
}
);
width = 191;
}
);
unicode = 0042;
},
{
glyphname = C;
lastChange = "2013-05-29 09:14:35 +0100";
layers = (
{
layerId = "89B20C2D-044E-4E5A-A925-3C21DF4F2314";
name = Regular;
paths = (
{
closed = 1;
nodes = (
"110 113 OFFCURVE",
"99 101 OFFCURVE",
"99 88 CURVE SMOOTH",
"99 74 OFFCURVE",
"110 63 OFFCURVE",
"124 63 CURVE SMOOTH",
"138 63 OFFCURVE",
"149 74 OFFCURVE",
"149 88 CURVE SMOOTH",
"149 101 OFFCURVE",
"138 113 OFFCURVE",
"124 113 CURVE SMOOTH"
);
},
{
closed = 1;
nodes = (
"94 33 OFFCURVE",
"70 58 OFFCURVE",
"70 88 CURVE SMOOTH",
"70 117 OFFCURVE",
"94 142 OFFCURVE",
"124 142 CURVE SMOOTH",
"154 142 OFFCURVE",
"178 117 OFFCURVE",
"178 88 CURVE SMOOTH",
"178 58 OFFCURVE",
"154 33 OFFCURVE",
"124 33 CURVE SMOOTH"
);
},
{
closed = 1;
nodes = (
"45 176 OFFCURVE",
"34 187 OFFCURVE",
"34 201 CURVE SMOOTH",
"34 284 LINE SMOOTH",
"34 298 OFFCURVE",
"45 309 OFFCURVE",
"59 309 CURVE SMOOTH",
"193 309 LINE SMOOTH",
"207 309 OFFCURVE",
"218 298 OFFCURVE",
"218 284 CURVE SMOOTH",
"218 201 LINE SMOOTH",
"218 187 OFFCURVE",
"207 176 OFFCURVE",
"193 176 CURVE SMOOTH",
"59 176 LINE SMOOTH"
);
},
{
closed = 1;
nodes = (
"54 341 LINE SMOOTH",
"24 341 OFFCURVE",
"0 317 OFFCURVE",
"0 287 CURVE SMOOTH",
"0 54 LINE SMOOTH",
"0 24 OFFCURVE",
"24 0 OFFCURVE",
"54 0 CURVE SMOOTH",
"196 0 LINE SMOOTH",
"226 0 OFFCURVE",
"250 24 OFFCURVE",
"250 54 CURVE SMOOTH",
"250 287 LINE SMOOTH",
"250 317 OFFCURVE",
"226 341 OFFCURVE",
"196 341 CURVE SMOOTH"
);
}
);
width = 250;
}
);
unicode = 0043;
},
{
glyphname = D;
lastChange = "2013-05-29 09:14:52 +0100";
layers = (
{
layerId = "89B20C2D-044E-4E5A-A925-3C21DF4F2314";
name = Regular;
paths = (
{
closed = 1;
nodes = (
"250 401 OFFCURVE",
"226 425 OFFCURVE",
"196 425 CURVE SMOOTH",
"54 425 LINE SMOOTH",
"24 425 OFFCURVE",
"0 401 OFFCURVE",
"0 371 CURVE SMOOTH",
"0 54 LINE SMOOTH",
"0 24 OFFCURVE",
"24 0 OFFCURVE",
"54 0 CURVE SMOOTH",
"196 0 LINE SMOOTH",
"226 0 OFFCURVE",
"250 24 OFFCURVE",
"250 54 CURVE SMOOTH",
"250 371 LINE SMOOTH"
);
},
{
closed = 1;
nodes = (
"129 400 OFFCURVE",
"133 397 OFFCURVE",
"133 392 CURVE SMOOTH",
"133 387 OFFCURVE",
"129 384 OFFCURVE",
"125 384 CURVE SMOOTH",
"120 384 OFFCURVE",
"116 387 OFFCURVE",
"116 392 CURVE SMOOTH",
"116 397 OFFCURVE",
"120 400 OFFCURVE",
"125 400 CURVE SMOOTH"
);
},
{
closed = 1;
nodes = (
"111 21 OFFCURVE",
"100 32 OFFCURVE",
"100 46 CURVE SMOOTH",
"100 60 OFFCURVE",
"111 71 OFFCURVE",
"125 71 CURVE SMOOTH",
"139 71 OFFCURVE",
"150 60 OFFCURVE",
"150 46 CURVE SMOOTH",
"150 32 OFFCURVE",
"139 21 OFFCURVE",
"125 21 CURVE SMOOTH"
);
},
{
closed = 1;
nodes = (
"219 110 OFFCURVE",
"208 99 OFFCURVE",
"194 99 CURVE SMOOTH",
"60 99 LINE SMOOTH",
"46 99 OFFCURVE",
"35 110 OFFCURVE",
"35 124 CURVE SMOOTH",
"35 334 LINE SMOOTH",
"35 348 OFFCURVE",
"46 359 OFFCURVE",
"60 359 CURVE SMOOTH",
"194 359 LINE SMOOTH",
"208 359 OFFCURVE",
"219 348 OFFCURVE",
"219 334 CURVE SMOOTH",
"219 124 LINE SMOOTH"
);
}
);
width = 250;
}
);
unicode = 0044;
},
{
glyphname = E;
lastChange = "2013-05-29 09:15:24 +0100";
layers = (
{
layerId = "89B20C2D-044E-4E5A-A925-3C21DF4F2314";
name = Regular;
paths = (
{
closed = 1;
nodes = (
"111 21 OFFCURVE",
"99 32 OFFCURVE",
"99 46 CURVE SMOOTH",
"99 60 OFFCURVE",
"111 71 OFFCURVE",
"125 71 CURVE SMOOTH",
"138 71 OFFCURVE",
"150 60 OFFCURVE",
"150 46 CURVE SMOOTH",
"150 32 OFFCURVE",
"138 21 OFFCURVE",
"125 21 CURVE SMOOTH"
);
},
{
closed = 1;
nodes = (
"45 99 OFFCURVE",
"34 110 OFFCURVE",
"34 124 CURVE SMOOTH",
"34 334 LINE SMOOTH",
"34 348 OFFCURVE",
"45 359 OFFCURVE",
"59 359 CURVE SMOOTH",
"193 359 LINE SMOOTH",
"207 359 OFFCURVE",
"218 348 OFFCURVE",
"218 334 CURVE SMOOTH",
"218 124 LINE SMOOTH",
"218 110 OFFCURVE",
"207 99 OFFCURVE",
"193 99 CURVE SMOOTH",
"59 99 LINE SMOOTH"
);
},
{
closed = 1;
nodes = (
"95 384 OFFCURVE",
"91 388 OFFCURVE",
"91 393 CURVE SMOOTH",
"91 397 OFFCURVE",
"95 401 OFFCURVE",
"99 401 CURVE SMOOTH",
"150 401 LINE SMOOTH",
"154 401 OFFCURVE",
"158 397 OFFCURVE",
"158 393 CURVE SMOOTH",
"158 388 OFFCURVE",
"154 384 OFFCURVE",
"150 384 CURVE SMOOTH",
"99 384 LINE SMOOTH"
);
},
{
closed = 1;
nodes = (
"54 425 LINE SMOOTH",
"24 425 OFFCURVE",
"0 401 OFFCURVE",
"0 371 CURVE SMOOTH",
"0 54 LINE SMOOTH",
"0 24 OFFCURVE",
"24 0 OFFCURVE",
"54 0 CURVE SMOOTH",
"196 0 LINE SMOOTH",
"226 0 OFFCURVE",
"250 24 OFFCURVE",
"250 54 CURVE SMOOTH",
"250 371 LINE SMOOTH",
"250 401 OFFCURVE",
"226 425 OFFCURVE",
"196 425 CURVE SMOOTH"
);
}
);
width = 250;
}
);
unicode = 0045;
},
{
glyphname = F;
lastChange = "2013-05-29 09:15:43 +0100";
layers = (
{
layerId = "89B20C2D-044E-4E5A-A925-3C21DF4F2314";
name = Regular;
paths = (
{
closed = 1;
nodes = (
"384 477 OFFCURVE",
"360 501 OFFCURVE",
"330 501 CURVE SMOOTH",
"54 501 LINE SMOOTH",
"24 501 OFFCURVE",
"0 477 OFFCURVE",
"0 447 CURVE SMOOTH",
"0 54 LINE SMOOTH",
"0 24 OFFCURVE",
"24 0 OFFCURVE",
"54 0 CURVE SMOOTH",
"330 0 LINE SMOOTH",
"360 0 OFFCURVE",
"384 24 OFFCURVE",
"384 54 CURVE SMOOTH",
"384 447 LINE SMOOTH"
);
},
{
closed = 1;
nodes = (
"178 25 OFFCURVE",
"167 36 OFFCURVE",
"167 50 CURVE SMOOTH",
"167 64 OFFCURVE",
"178 75 OFFCURVE",
"192 75 CURVE SMOOTH",
"206 75 OFFCURVE",
"217 64 OFFCURVE",
"217 50 CURVE SMOOTH",
"217 36 OFFCURVE",
"206 25 OFFCURVE",
"192 25 CURVE SMOOTH"
);
},
{
closed = 1;
nodes = (
"333 110 OFFCURVE",
"322 99 OFFCURVE",
"308 99 CURVE SMOOTH",
"74 99 LINE SMOOTH",
"60 99 OFFCURVE",
"49 110 OFFCURVE",
"49 124 CURVE SMOOTH",
"49 424 LINE SMOOTH",
"49 438 OFFCURVE",
"60 449 OFFCURVE",
"74 449 CURVE SMOOTH",
"308 449 LINE SMOOTH",
"322 449 OFFCURVE",
"333 438 OFFCURVE",
"333 424 CURVE SMOOTH",
"333 124 LINE SMOOTH"
);
}
);
width = 384;
}
);
unicode = 0046;
},
{
glyphname = G;
lastChange = "2013-05-29 09:16:02 +0100";
layers = (
{
layerId = "89B20C2D-044E-4E5A-A925-3C21DF4F2314";
name = Regular;
paths = (
{
closed = 1;
nodes = (
"223 25 OFFCURVE",
"212 36 OFFCURVE",
"212 50 CURVE SMOOTH",
"212 64 OFFCURVE",
"223 75 OFFCURVE",
"237 75 CURVE SMOOTH",
"251 75 OFFCURVE",
"262 64 OFFCURVE",
"262 50 CURVE SMOOTH",
"262 36 OFFCURVE",
"251 25 OFFCURVE",
"237 25 CURVE SMOOTH"
);
},
{
closed = 1;
nodes = (
"60 101 OFFCURVE",
"49 112 OFFCURVE",
"49 126 CURVE SMOOTH",
"49 516 LINE SMOOTH",
"49 530 OFFCURVE",
"60 541 OFFCURVE",
"74 541 CURVE SMOOTH",
"400 541 LINE SMOOTH",
"414 541 OFFCURVE",
"425 530 OFFCURVE",
"425 516 CURVE SMOOTH",
"425 126 LINE SMOOTH",
"425 112 OFFCURVE",
"414 101 OFFCURVE",
"400 101 CURVE SMOOTH",
"74 101 LINE SMOOTH"
);
},
{
closed = 1;
nodes = (
"54 592 LINE SMOOTH",
"24 592 OFFCURVE",
"0 568 OFFCURVE",
"0 538 CURVE SMOOTH",
"0 54 LINE SMOOTH",
"0 24 OFFCURVE",
"24 0 OFFCURVE",
"54 0 CURVE SMOOTH",
"422 0 LINE SMOOTH",
"452 0 OFFCURVE",
"476 24 OFFCURVE",
"476 54 CURVE SMOOTH",
"476 538 LINE SMOOTH",
"476 568 OFFCURVE",
"452 592 OFFCURVE",
"422 592 CURVE SMOOTH"
);
}
);
width = 476;
}
);
unicode = 0047;
},
{
glyphname = H;
lastChange = "2013-05-29 09:16:19 +0100";
layers = (
{
layerId = "89B20C2D-044E-4E5A-A925-3C21DF4F2314";
name = Regular;
paths = (
{
closed = 1;
nodes = (
"449 425 OFFCURVE",
"425 449 OFFCURVE",
"395 449 CURVE SMOOTH",
"54 449 LINE SMOOTH",
"24 449 OFFCURVE",
"0 425 OFFCURVE",
"0 395 CURVE SMOOTH",
"0 54 LINE SMOOTH",
"0 24 OFFCURVE",
"24 0 OFFCURVE",
"54 0 CURVE SMOOTH",
"395 0 LINE SMOOTH",
"425 0 OFFCURVE",
"449 24 OFFCURVE",
"449 54 CURVE SMOOTH",
"449 395 LINE SMOOTH"
);
},
{
closed = 1;
nodes = (
"163 260 LINE",
"163 202 LINE SMOOTH",
"163 186 OFFCURVE",
"167 178 OFFCURVE",
"179 178 CURVE SMOOTH",
"185 178 OFFCURVE",
"189 179 OFFCURVE",
"192 180 CURVE",
"192 155 LINE",
"187 153 OFFCURVE",
"179 152 OFFCURVE",
"169 152 CURVE SMOOTH",
"157 152 OFFCURVE",
"146 156 OFFCURVE",
"140 162 CURVE SMOOTH",
"133 170 OFFCURVE",
"129 181 OFFCURVE",
"129 198 CURVE SMOOTH",
"129 260 LINE",
"113 260 LINE",
"113 284 LINE",
"129 284 LINE",
"129 312 LINE",
"163 320 LINE",
"163 284 LINE",
"191 284 LINE",
"191 260 LINE"
);
},
{
closed = 1;
nodes = (
"268 155 LINE",
"220 284 LINE",
"255 284 LINE",
"276 217 LINE",
"285 184 LINE",
"295 217 LINE",
"315 284 LINE",
"349 284 LINE",
"300 155 LINE"
);
}
);
width = 449;
}
);
unicode = 0048;
},
{
glyphname = I;
lastChange = "2013-05-29 09:16:43 +0100";
layers = (
{
layerId = "89B20C2D-044E-4E5A-A925-3C21DF4F2314";
name = Regular;
paths = (
{
closed = 1;
nodes = (
"158 633 OFFCURVE",
"108 612 OFFCURVE",
"71 576 CURVE",
"106 541 LINE",
"134 567 OFFCURVE",
"172 583 OFFCURVE",
"214 583 CURVE SMOOTH",
"256 583 OFFCURVE",
"293 567 OFFCURVE",
"322 541 CURVE",
"357 576 LINE",
"320 612 OFFCURVE",
"269 633 OFFCURVE",
"214 633 CURVE SMOOTH"
);
},
{
closed = 1;
nodes = (
"186 533 OFFCURVE",
"161 522 OFFCURVE",
"143 504 CURVE",
"214 433 LINE",
"285 504 LINE",
"267 522 OFFCURVE",
"242 533 OFFCURVE",
"214 533 CURVE SMOOTH"
);
},
{
closed = 1;
nodes = (
"142 383 LINE SMOOTH",
"112 383 OFFCURVE",
"87 359 OFFCURVE",
"87 329 CURVE SMOOTH",
"87 288 LINE",
"39 288 LINE",
"39 187 LINE",
"87 187 LINE",
"87 53 LINE SMOOTH",
"87 23 OFFCURVE",
"112 -1 OFFCURVE",
"142 -1 CURVE SMOOTH",
"284 -1 LINE SMOOTH",
"313 -1 OFFCURVE",
"339 23 OFFCURVE",
"339 53 CURVE SMOOTH",
"339 329 LINE SMOOTH",
"339 359 OFFCURVE",
"313 383 OFFCURVE",
"284 383 CURVE SMOOTH"
);
},
{
closed = 1;
nodes = (
"149 48 OFFCURVE",
"138 59 OFFCURVE",
"138 73 CURVE SMOOTH",
"138 307 LINE SMOOTH",
"138 321 OFFCURVE",
"149 332 OFFCURVE",
"163 332 CURVE SMOOTH",
"262 332 LINE SMOOTH",
"276 332 OFFCURVE",
"287 321 OFFCURVE",
"287 307 CURVE SMOOTH",
"287 73 LINE SMOOTH",
"287 59 OFFCURVE",
"276 48 OFFCURVE",
"262 48 CURVE SMOOTH",
"163 48 LINE SMOOTH"
);
},
{
closed = 1;
nodes = (
"131 733 OFFCURVE",
"55 700 OFFCURVE",
"0 647 CURVE",
"35 612 LINE",
"82 656 OFFCURVE",
"145 683 OFFCURVE",
"214 683 CURVE SMOOTH",
"283 683 OFFCURVE",
"346 656 OFFCURVE",
"392 612 CURVE",
"428 647 LINE",
"372 700 OFFCURVE",
"297 733 OFFCURVE",
"214 733 CURVE SMOOTH"
);
}
);
width = 428;
}
);
unicode = 0049;
},
{
glyphname = J;
lastChange = "2013-05-29 09:17:08 +0100";
layers = (
{
layerId = "89B20C2D-044E-4E5A-A925-3C21DF4F2314";
name = Regular;
paths = (
{
closed = 1;
nodes = (
"541 426 OFFCURVE",
"517 450 OFFCURVE",
"487 450 CURVE SMOOTH",
"54 450 LINE SMOOTH",
"24 450 OFFCURVE",
"0 426 OFFCURVE",
"0 396 CURVE SMOOTH",
"0 55 LINE SMOOTH",
"0 25 OFFCURVE",
"24 1 OFFCURVE",
"54 1 CURVE SMOOTH",
"487 1 LINE SMOOTH",
"517 1 OFFCURVE",
"541 25 OFFCURVE",
"541 55 CURVE SMOOTH",
"541 396 LINE SMOOTH"
);
},
{
closed = 1;
nodes = (
"447 89 OFFCURVE",
"458 100 OFFCURVE",
"458 114 CURVE SMOOTH",
"458 127 OFFCURVE",
"447 139 OFFCURVE",
"433 139 CURVE SMOOTH",
"419 139 OFFCURVE",
"408 127 OFFCURVE",
"408 114 CURVE SMOOTH",
"408 100 OFFCURVE",
"419 89 OFFCURVE",
"433 89 CURVE SMOOTH"
);
},
{
closed = 1;
nodes = (
"492 62 OFFCURVE",
"480 50 OFFCURVE",
"467 50 CURVE SMOOTH",
"75 50 LINE SMOOTH",
"61 50 OFFCURVE",
"48 62 OFFCURVE",
"48 76 CURVE SMOOTH",
"48 172 LINE",
"492 172 LINE",
"492 76 LINE SMOOTH"
);
},
{
closed = 1;
nodes = (
"48 222 LINE",
"48 377 LINE SMOOTH",
"48 390 OFFCURVE",
"61 402 OFFCURVE",
"75 402 CURVE SMOOTH",
"467 402 LINE SMOOTH",
"480 402 OFFCURVE",
"492 390 OFFCURVE",
"492 377 CURVE SMOOTH",
"492 222 LINE"
);
},
{
closed = 1;
nodes = (
"241 612 OFFCURVE",
"214 598 OFFCURVE",
"197 575 CURVE",
"273 502 LINE",
"346 575 LINE",
"329 598 OFFCURVE",
"302 612 OFFCURVE",
"272 612 CURVE SMOOTH"
);
},
{
closed = 1;
nodes = (
"173 860 OFFCURVE",
"84 820 OFFCURVE",
"20 755 CURVE",
"66 711 LINE",
"118 764 OFFCURVE",
"191 797 OFFCURVE",
"271 797 CURVE SMOOTH",
"351 797 OFFCURVE",
"424 764 OFFCURVE",
"476 712 CURVE",
"521 757 LINE",
"457 821 OFFCURVE",
"369 860 OFFCURVE",
"271 860 CURVE SMOOTH"
);
},
{
closed = 1;
nodes = (
"154 618 LINE",
"185 647 OFFCURVE",
"228 666 OFFCURVE",
"274 666 CURVE SMOOTH",
"321 666 OFFCURVE",
"363 647 OFFCURVE",
"394 618 CURVE",
"439 662 LINE",
"396 703 OFFCURVE",
"338 729 OFFCURVE",
"274 729 CURVE SMOOTH",
"210 729 OFFCURVE",
"152 703 OFFCURVE",
"109 662 CURVE"
);
}
);
width = 541;
}
);
unicode = 004A;
},
{
glyphname = K;
lastChange = "2013-05-29 09:17:29 +0100";
layers = (
{
layerId = "89B20C2D-044E-4E5A-A925-3C21DF4F2314";
name = Regular;
paths = (
{
closed = 1;
nodes = (
"269 778 OFFCURVE",
"210 752 OFFCURVE",
"167 711 CURVE",
"213 666 LINE",
"244 696 OFFCURVE",
"286 714 OFFCURVE",
"333 714 CURVE SMOOTH",
"379 714 OFFCURVE",
"422 696 OFFCURVE",
"453 666 CURVE",
"498 711 LINE",
"455 752 OFFCURVE",
"397 778 OFFCURVE",
"333 778 CURVE SMOOTH"
);
},
{
closed = 1;
nodes = (
"300 661 OFFCURVE",
"273 646 OFFCURVE",
"256 624 CURVE",
"331 550 LINE",
"405 624 LINE",
"388 646 OFFCURVE",
"361 661 OFFCURVE",
"330 661 CURVE SMOOTH"
);
},
{
closed = 1;
nodes = (
"54 501 LINE SMOOTH",
"24 501 OFFCURVE",
"0 476 OFFCURVE",
"0 446 CURVE SMOOTH",
"0 54 LINE SMOOTH",
"0 24 OFFCURVE",
"24 0 OFFCURVE",
"54 0 CURVE SMOOTH",
"596 0 LINE SMOOTH",
"626 0 OFFCURVE",
"651 24 OFFCURVE",
"651 54 CURVE SMOOTH",
"651 446 LINE SMOOTH",
"651 476 OFFCURVE",
"626 501 OFFCURVE",
"596 501 CURVE SMOOTH"
);
},
{
closed = 1;
nodes = (
"528 138 OFFCURVE",
"517 126 OFFCURVE",
"517 113 CURVE SMOOTH",
"517 99 OFFCURVE",
"528 88 OFFCURVE",
"542 88 CURVE SMOOTH",
"556 88 OFFCURVE",
"567 99 OFFCURVE",
"567 113 CURVE SMOOTH",
"567 126 OFFCURVE",
"556 138 OFFCURVE",
"542 138 CURVE SMOOTH"
);
},
{
closed = 1;
nodes = (
"61 49 OFFCURVE",
"50 61 OFFCURVE",
"50 75 CURVE SMOOTH",
"50 171 LINE",
"600 171 LINE",
"600 75 LINE SMOOTH",
"600 61 OFFCURVE",
"589 49 OFFCURVE",
"575 49 CURVE SMOOTH",
"75 49 LINE SMOOTH"
);
},
{
closed = 1;
nodes = (
"50 425 LINE SMOOTH",
"50 439 OFFCURVE",
"61 449 OFFCURVE",
"75 449 CURVE SMOOTH",
"575 449 LINE SMOOTH",
"589 449 OFFCURVE",
"600 439 OFFCURVE",
"600 425 CURVE SMOOTH",
"600 221 LINE",
"50 221 LINE"
);
},
{
closed = 1;
nodes = (
"232 909 OFFCURVE",
"143 869 OFFCURVE",
"79 804 CURVE",
"124 760 LINE",
"177 813 OFFCURVE",
"249 846 OFFCURVE",
"330 846 CURVE SMOOTH",
"410 846 OFFCURVE",
"482 813 OFFCURVE",
"534 761 CURVE",
"579 805 LINE",
"516 869 OFFCURVE",
"427 909 OFFCURVE",
"330 909 CURVE SMOOTH"
);
}
);
width = 651;
}
);
unicode = 004B;
},
{
glyphname = L;
lastChange = "2013-05-29 09:17:51 +0100";
layers = (
{
layerId = "89B20C2D-044E-4E5A-A925-3C21DF4F2314";
name = Regular;
paths = (
{
closed = 1;
nodes = (
"750 325 OFFCURVE",
"726 349 OFFCURVE",
"696 349 CURVE SMOOTH",
"54 349 LINE SMOOTH",
"24 349 OFFCURVE",
"0 325 OFFCURVE",
"0 295 CURVE SMOOTH",
"0 53 LINE SMOOTH",
"0 23 OFFCURVE",
"24 -1 OFFCURVE",
"54 -1 CURVE SMOOTH",
"696 -1 LINE SMOOTH",
"726 -1 OFFCURVE",
"750 23 OFFCURVE",
"750 53 CURVE SMOOTH",
"750 295 LINE SMOOTH"
);
},
{
closed = 1;
nodes = (
"700 60 OFFCURVE",
"689 49 OFFCURVE",
"675 49 CURVE SMOOTH",
"76 49 LINE SMOOTH",
"62 49 OFFCURVE",
"51 60 OFFCURVE",
"51 74 CURVE SMOOTH",
"51 274 LINE SMOOTH",
"51 288 OFFCURVE",
"62 299 OFFCURVE",
"76 299 CURVE SMOOTH",
"675 299 LINE SMOOTH",
"689 299 OFFCURVE",
"700 288 OFFCURVE",
"700 274 CURVE SMOOTH",
"700 74 LINE SMOOTH"
);
},
{
closed = 1;
nodes = (
"132 74 LINE",
"132 124 LINE",
"80 124 LINE",
"80 74 LINE"
);
},
{
closed = 1;
nodes = (
"132 148 LINE",
"132 198 LINE",
"80 198 LINE",
"80 148 LINE"
);
},
{
closed = 1;
nodes = (
"132 224 LINE",
"132 275 LINE",
"80 275 LINE",
"80 224 LINE"
);
},
{
closed = 1;
nodes = (
"205 74 LINE",
"205 124 LINE",
"156 124 LINE",
"156 74 LINE"
);
},
{
closed = 1;
nodes = (
"205 148 LINE",
"205 198 LINE",
"156 198 LINE",
"156 148 LINE"
);
},
{
closed = 1;
nodes = (
"205 224 LINE",
"205 275 LINE",
"156 275 LINE",
"156 224 LINE"
);
},
{
closed = 1;
nodes = (
"680 224 LINE",
"680 275 LINE",
"633 275 LINE",
"633 224 LINE"
);
},
{
closed = 1;
nodes = (
"680 148 LINE",
"680 198 LINE",
"633 198 LINE",
"633 148 LINE"
);
},
{
closed = 1;
nodes = (
"680 74 LINE",
"680 124 LINE",
"633 124 LINE",
"633 74 LINE"
);
},
{
closed = 1;
nodes = (
"606 224 LINE",
"606 275 LINE",
"555 275 LINE",
"555 224 LINE"
);
},
{
closed = 1;
nodes = (
"606 148 LINE",
"606 198 LINE",
"555 198 LINE",
"555 148 LINE"
);
},
{
closed = 1;
nodes = (
"606 74 LINE",
"606 124 LINE",
"555 124 LINE",
"555 74 LINE"
);
},
{
closed = 1;
nodes = (
"281 74 LINE",
"281 124 LINE",
"231 124 LINE",
"231 74 LINE"
);
},
{
closed = 1;
nodes = (
"281 148 LINE",
"281 198 LINE",
"231 198 LINE",
"231 148 LINE"
);
},
{
closed = 1;
nodes = (
"281 224 LINE",
"281 275 LINE",
"231 275 LINE",
"231 224 LINE"
);
},
{
closed = 1;
nodes = (
"356 74 LINE",
"356 124 LINE",
"304 124 LINE",
"304 74 LINE"
);
},
{
closed = 1;
nodes = (
"356 148 LINE",
"356 198 LINE",
"304 198 LINE",
"304 148 LINE"
);
},
{
closed = 1;
nodes = (
"356 224 LINE",
"356 275 LINE",
"304 275 LINE",
"304 224 LINE"
);
},
{
closed = 1;
nodes = (
"433 74 LINE",
"433 124 LINE",
"382 124 LINE",
"382 74 LINE"
);
},
{
closed = 1;
nodes = (
"433 148 LINE",
"433 198 LINE",
"382 198 LINE",
"382 148 LINE"
);
},
{
closed = 1;
nodes = (
"433 224 LINE",
"433 275 LINE",
"382 275 LINE",
"382 224 LINE"
);
},
{
closed = 1;
nodes = (
"910 299 LINE SMOOTH",
"880 299 OFFCURVE",
"857 275 OFFCURVE",
"857 245 CURVE SMOOTH",
"857 53 LINE SMOOTH",
"857 23 OFFCURVE",
"880 -1 OFFCURVE",
"910 -1 CURVE SMOOTH",
"973 -1 LINE SMOOTH",
"1002 -1 OFFCURVE",
"1029 23 OFFCURVE",
"1029 53 CURVE SMOOTH",
"1029 245 LINE SMOOTH",
"1029 275 OFFCURVE",
"1002 299 OFFCURVE",
"973 299 CURVE SMOOTH"
);
}
);
width = 1029;
}
);
unicode = 004C;
},
{
glyphname = M;
lastChange = "2013-05-29 09:18:13 +0100";
layers = (
{
layerId = "89B20C2D-044E-4E5A-A925-3C21DF4F2314";
name = Regular;
paths = (
{
closed = 1;
nodes = (
"62 50 OFFCURVE",
"51 61 OFFCURVE",
"51 75 CURVE SMOOTH",
"51 275 LINE SMOOTH",
"51 289 OFFCURVE",
"62 300 OFFCURVE",
"76 300 CURVE SMOOTH",
"276 300 LINE SMOOTH",
"290 300 OFFCURVE",
"301 289 OFFCURVE",
"301 275 CURVE SMOOTH",
"301 75 LINE SMOOTH",
"301 61 OFFCURVE",
"290 50 OFFCURVE",
"276 50 CURVE SMOOTH",
"76 50 LINE SMOOTH"
);
},
{
closed = 1;
nodes = (
"56 350 LINE SMOOTH",
"26 350 OFFCURVE",
"2 326 OFFCURVE",
"2 296 CURVE SMOOTH",
"2 54 LINE SMOOTH",
"2 24 OFFCURVE",
"26 0 OFFCURVE",
"56 0 CURVE SMOOTH",
"298 0 LINE SMOOTH",
"328 0 OFFCURVE",
"352 24 OFFCURVE",
"352 54 CURVE SMOOTH",
"352 296 LINE SMOOTH",
"352 326 OFFCURVE",
"328 350 OFFCURVE",
"298 350 CURVE SMOOTH"
);
}
);
width = 352;
}
);
unicode = 004D;
},
{
glyphname = N;
lastChange = "2013-05-29 09:18:45 +0100";
layers = (
{
layerId = "89B20C2D-044E-4E5A-A925-3C21DF4F2314";
name = Regular;
paths = (
{
closed = 1;
nodes = (
"649 477 OFFCURVE",
"624 501 OFFCURVE",
"594 501 CURVE SMOOTH",
"54 501 LINE SMOOTH",
"24 501 OFFCURVE",
"0 477 OFFCURVE",
"0 447 CURVE SMOOTH",
"0 54 LINE SMOOTH",
"0 24 OFFCURVE",
"24 0 OFFCURVE",
"54 0 CURVE SMOOTH",
"594 0 LINE SMOOTH",
"624 0 OFFCURVE",
"649 24 OFFCURVE",
"649 54 CURVE SMOOTH",
"649 447 LINE SMOOTH"
);
},
{
closed = 1;
nodes = (
"601 61 OFFCURVE",
"588 49 OFFCURVE",
"574 49 CURVE SMOOTH",
"74 49 LINE SMOOTH",
"60 49 OFFCURVE",
"48 61 OFFCURVE",
"48 75 CURVE SMOOTH",
"48 171 LINE",
"601 171 LINE",
"601 75 LINE SMOOTH"
);
},
{
closed = 1;
nodes = (
"48 221 LINE",
"48 425 LINE SMOOTH",
"48 439 OFFCURVE",
"60 449 OFFCURVE",
"74 449 CURVE SMOOTH",
"574 449 LINE SMOOTH",
"588 449 OFFCURVE",
"601 439 OFFCURVE",
"601 425 CURVE SMOOTH",
"601 221 LINE"
);
},
{
closed = 1;
nodes = (
"82 137 LINE",
"82 104 LINE",
"566 104 LINE",
"566 137 LINE"
);
}
);
width = 649;
}
);
unicode = 004E;
},
{
glyphname = O;
lastChange = "2013-05-29 09:18:58 +0100";
layers = (
{
layerId = "89B20C2D-044E-4E5A-A925-3C21DF4F2314";
name = Regular;
paths = (
{
closed = 1;
nodes = (
"286 113 OFFCURVE",
"272 126 OFFCURVE",
"272 142 CURVE SMOOTH",
"272 158 OFFCURVE",
"286 171 OFFCURVE",
"302 171 CURVE SMOOTH",
"452 171 LINE SMOOTH",
"468 171 OFFCURVE",
"481 158 OFFCURVE",
"481 142 CURVE SMOOTH",
"481 126 OFFCURVE",
"468 113 OFFCURVE",
"452 113 CURVE SMOOTH",
"302 113 LINE SMOOTH"
);
},
{
closed = 1;
nodes = (
"109 83 OFFCURVE",
"85 108 OFFCURVE",
"85 138 CURVE SMOOTH",
"85 168 OFFCURVE",
"109 192 OFFCURVE",
"139 192 CURVE SMOOTH",
"169 192 OFFCURVE",
"193 168 OFFCURVE",
"193 138 CURVE SMOOTH",
"193 108 OFFCURVE",
"169 83 OFFCURVE",
"139 83 CURVE SMOOTH"
);
},
{
closed = 1;
nodes = (
"584 83 OFFCURVE",
"560 108 OFFCURVE",
"560 138 CURVE SMOOTH",
"560 168 OFFCURVE",
"584 192 OFFCURVE",
"614 192 CURVE SMOOTH",
"644 192 OFFCURVE",
"668 168 OFFCURVE",
"668 138 CURVE SMOOTH",
"668 108 OFFCURVE",
"644 83 OFFCURVE",
"614 83 CURVE SMOOTH"
);
},
{
closed = 1;
nodes = (
"96 251 OFFCURVE",
"84 262 OFFCURVE",
"84 276 CURVE SMOOTH",
"84 651 LINE SMOOTH",
"84 665 OFFCURVE",
"96 676 OFFCURVE",
"109 676 CURVE SMOOTH",
"644 676 LINE SMOOTH",
"657 676 OFFCURVE",
"668 665 OFFCURVE",
"668 651 CURVE SMOOTH",
"668 276 LINE SMOOTH",
"668 262 OFFCURVE",
"657 251 OFFCURVE",
"644 251 CURVE SMOOTH",
"109 251 LINE SMOOTH"
);
},
{
closed = 1;
nodes = (
"55 753 LINE SMOOTH",
"25 753 OFFCURVE",
"0 730 OFFCURVE",
"0 700 CURVE SMOOTH",
"0 54 LINE SMOOTH",
"0 24 OFFCURVE",
"25 0 OFFCURVE",
"55 0 CURVE SMOOTH",
"696 0 LINE SMOOTH",
"726 0 OFFCURVE",
"750 24 OFFCURVE",
"750 54 CURVE SMOOTH",
"750 700 LINE SMOOTH",
"750 730 OFFCURVE",
"726 753 OFFCURVE",
"696 753 CURVE SMOOTH"
);
}
);
width = 750;
}
);
unicode = 004F;
},
{
glyphname = P;
lastChange = "2013-05-29 09:19:21 +0100";
layers = (
{
layerId = "89B20C2D-044E-4E5A-A925-3C21DF4F2314";
name = Regular;
paths = (
{
closed = 1;
nodes = (
"53 1001 LINE SMOOTH",
"24 1001 OFFCURVE",
"0 976 OFFCURVE",
"0 946 CURVE SMOOTH",
"0 213 LINE SMOOTH",
"0 183 OFFCURVE",
"24 160 OFFCURVE",
"53 160 CURVE SMOOTH",
"433 160 LINE",
"395 60 LINE",
"392 54 OFFCURVE",
"391 48 OFFCURVE",
"391 43 CURVE SMOOTH",
"391 19 OFFCURVE",
"410 0 OFFCURVE",
"433 0 CURVE SMOOTH",
"733 0 LINE SMOOTH",
"756 0 OFFCURVE",
"775 19 OFFCURVE",
"775 43 CURVE SMOOTH",
"775 48 OFFCURVE",
"773 54 OFFCURVE",
"771 60 CURVE",
"733 160 LINE",
"1112 160 LINE SMOOTH",
"1142 160 OFFCURVE",
"1167 183 OFFCURVE",
"1167 213 CURVE SMOOTH",
"1167 946 LINE SMOOTH",
"1167 976 OFFCURVE",
"1142 1001 OFFCURVE",
"1112 1001 CURVE SMOOTH"
);
},
{
closed = 1;
nodes = (
"1084 252 OFFCURVE",
"1073 241 OFFCURVE",
"1059 241 CURVE SMOOTH",
"108 241 LINE SMOOTH",
"94 241 OFFCURVE",
"83 252 OFFCURVE",
"83 266 CURVE SMOOTH",
"83 892 LINE SMOOTH",
"83 906 OFFCURVE",
"94 917 OFFCURVE",
"108 917 CURVE SMOOTH",
"1059 917 LINE SMOOTH",
"1073 917 OFFCURVE",
"1084 906 OFFCURVE",
"1084 892 CURVE SMOOTH",
"1084 266 LINE SMOOTH"
);
}
);
width = 1167;
}
);
unicode = 0050;
},
{
glyphname = Q;
lastChange = "2013-05-29 09:19:43 +0100";
layers = (
{
layerId = "89B20C2D-044E-4E5A-A925-3C21DF4F2314";
name = Regular;
paths = (
{
closed = 1;
nodes = (
"95 348 OFFCURVE",
"83 360 OFFCURVE",
"83 374 CURVE SMOOTH",
"83 892 LINE SMOOTH",
"83 906 OFFCURVE",
"95 917 OFFCURVE",
"108 917 CURVE SMOOTH",
"852 917 LINE SMOOTH",
"865 917 OFFCURVE",
"876 906 OFFCURVE",
"876 892 CURVE SMOOTH",
"876 374 LINE SMOOTH",
"876 360 OFFCURVE",
"865 348 OFFCURVE",
"852 348 CURVE SMOOTH",
"108 348 LINE SMOOTH"
);
},
{
closed = 1;
nodes = (
"55 1001 LINE SMOOTH",
"25 1001 OFFCURVE",
"0 976 OFFCURVE",
"0 946 CURVE SMOOTH",
"0 321 LINE SMOOTH",
"0 291 OFFCURVE",
"25 268 OFFCURVE",
"55 268 CURVE SMOOTH",
"442 268 LINE",
"442 163 LINE",
"355 148 OFFCURVE",
"282 84 OFFCURVE",
"255 0 CURVE",
"715 0 LINE",
"687 84 OFFCURVE",
"613 148 OFFCURVE",
"526 163 CURVE",
"526 268 LINE",
"906 268 LINE SMOOTH",
"936 268 OFFCURVE",
"960 291 OFFCURVE",
"960 321 CURVE SMOOTH",
"960 946 LINE SMOOTH",
"960 976 OFFCURVE",
"936 1001 OFFCURVE",
"906 1001 CURVE SMOOTH"
);
}
);
width = 960;
}
);
unicode = 0051;
},
{
glyphname = R;
lastChange = "2013-05-29 10:07:16 +0100";
layers = (
{
layerId = "89B20C2D-044E-4E5A-A925-3C21DF4F2314";
name = Regular;
paths = (
{
closed = 1;
nodes = (
"54 1001 LINE SMOOTH",
"24 1001 OFFCURVE",
"0 976 OFFCURVE",
"0 946 CURVE SMOOTH",
"0 213 LINE SMOOTH",
"0 183 OFFCURVE",
"24 160 OFFCURVE",
"54 160 CURVE SMOOTH",
"434 160 LINE",
"395 60 LINE",
"393 54 OFFCURVE",
"392 48 OFFCURVE",
"392 43 CURVE SMOOTH",
"392 19 OFFCURVE",
"411 0 OFFCURVE",
"434 0 CURVE SMOOTH",
"734 0 LINE SMOOTH",
"757 0 OFFCURVE",
"775 19 OFFCURVE",
"775 43 CURVE SMOOTH",
"775 48 OFFCURVE",
"774 54 OFFCURVE",
"772 60 CURVE",
"734 160 LINE",
"1113 160 LINE SMOOTH",
"1143 160 OFFCURVE",
"1168 183 OFFCURVE",
"1168 213 CURVE SMOOTH",
"1168 946 LINE SMOOTH",
"1168 976 OFFCURVE",
"1143 1001 OFFCURVE",
"1113 1001 CURVE SMOOTH"
);
},
{
closed = 1;
nodes = (
"1085 361 OFFCURVE",
"1074 350 OFFCURVE",
"1060 350 CURVE SMOOTH",
"109 350 LINE SMOOTH",
"95 350 OFFCURVE",
"84 361 OFFCURVE",
"84 375 CURVE SMOOTH",
"84 892 LINE SMOOTH",
"84 906 OFFCURVE",
"95 917 OFFCURVE",
"109 917 CURVE SMOOTH",
"1060 917 LINE SMOOTH",
"1074 917 OFFCURVE",
"1085 906 OFFCURVE",
"1085 892 CURVE SMOOTH",
"1085 375 LINE SMOOTH"
);
}
);
width = 1168;
}
);
unicode = 0052;
},
{
glyphname = S;
lastChange = "2013-05-29 09:20:14 +0100";
layers = (
{
layerId = "89B20C2D-044E-4E5A-A925-3C21DF4F2314";
name = Regular;
paths = (
{
closed = 1;
nodes = (
"61 49 OFFCURVE",
"57 61 OFFCURVE",
"57 75 CURVE SMOOTH",
"57 92 LINE",
"57 108 LINE",
"57 133 LINE",
"75 133 LINE",
"292 133 LINE",
"322 133 LINE",
"322 108 LINE",
"322 92 LINE",
"322 75 LINE SMOOTH",
"322 61 OFFCURVE",
"305 49 OFFCURVE",
"292 49 CURVE SMOOTH",
"75 49 LINE SMOOTH"
);
},
{
closed = 1;
nodes = (
"61 384 OFFCURVE",
"50 395 OFFCURVE",
"50 409 CURVE SMOOTH",
"50 422 OFFCURVE",
"61 434 OFFCURVE",
"75 434 CURVE SMOOTH",
"89 434 OFFCURVE",
"100 422 OFFCURVE",
"100 409 CURVE SMOOTH",
"100 395 OFFCURVE",
"89 384 OFFCURVE",
"75 384 CURVE SMOOTH"
);
},
{
closed = 1;
nodes = (
"57 709 LINE",
"322 709 LINE",
"322 669 LINE",
"57 669 LINE"
);
},
{
closed = 1;
nodes = (
"57 784 LINE",
"322 784 LINE",
"322 742 LINE",
"57 742 LINE"
);
},
{
closed = 1;
nodes = (
"57 892 LINE",
"57 909 LINE",
"57 926 LINE SMOOTH",
"57 939 OFFCURVE",
"61 949 OFFCURVE",
"75 949 CURVE SMOOTH",
"292 949 LINE SMOOTH",
"305 949 OFFCURVE",
"322 939 OFFCURVE",
"322 926 CURVE SMOOTH",
"322 909 LINE",
"322 892 LINE",
"322 868 LINE",
"292 868 LINE",
"75 868 LINE",
"57 868 LINE"
);
},
{
closed = 1;
nodes = (
"54 1001 LINE SMOOTH",
"24 1001 OFFCURVE",
"0 976 OFFCURVE",
"0 946 CURVE SMOOTH",
"0 54 LINE SMOOTH",
"0 24 OFFCURVE",
"24 0 OFFCURVE",
"54 0 CURVE SMOOTH",
"312 0 LINE SMOOTH",
"342 0 OFFCURVE",
"369 24 OFFCURVE",
"369 54 CURVE SMOOTH",
"369 946 LINE SMOOTH",
"369 976 OFFCURVE",
"342 1001 OFFCURVE",
"312 1001 CURVE SMOOTH"
);
}
);
width = 369;
}
);
unicode = 0053;
},
{
glyphname = T;
lastChange = "2013-05-29 09:20:41 +0100";
layers = (
{
layerId = "89B20C2D-044E-4E5A-A925-3C21DF4F2314";
name = Regular;
paths = (
{
closed = 1;
nodes = (
"863 625 OFFCURVE",
"839 649 OFFCURVE",
"809 649 CURVE SMOOTH",
"191 649 LINE SMOOTH",
"161 649 OFFCURVE",
"137 625 OFFCURVE",
"137 595 CURVE SMOOTH",
"137 194 LINE SMOOTH",
"137 164 OFFCURVE",
"161 140 OFFCURVE",
"191 140 CURVE SMOOTH",
"809 140 LINE SMOOTH",
"839 140 OFFCURVE",
"863 164 OFFCURVE",
"863 194 CURVE SMOOTH",
"863 595 LINE SMOOTH"
);
},
{
closed = 1;
nodes = (
"809 203 OFFCURVE",
"798 191 OFFCURVE",
"785 191 CURVE SMOOTH",
"218 191 LINE SMOOTH",
"204 191 OFFCURVE",
"192 203 OFFCURVE",
"192 217 CURVE SMOOTH",
"192 575 LINE SMOOTH",
"192 589 OFFCURVE",
"204 601 OFFCURVE",
"218 601 CURVE SMOOTH",
"785 601 LINE SMOOTH",
"798 601 OFFCURVE",
"809 589 OFFCURVE",
"809 575 CURVE SMOOTH",
"809 217 LINE SMOOTH"
);
},
{
closed = 1;
nodes = (
"56 108 LINE",
"0 108 LINE",
"0 54 LINE SMOOTH",
"0 24 OFFCURVE",
"26 0 OFFCURVE",
"56 0 CURVE SMOOTH",
"948 0 LINE SMOOTH",
"978 0 OFFCURVE",
"1002 24 OFFCURVE",
"1002 54 CURVE SMOOTH",
"1002 108 LINE",
"948 108 LINE"
);
},
{
closed = 1;
nodes = (
"451 49 LINE SMOOTH",
"446 49 OFFCURVE",
"443 54 OFFCURVE",
"443 58 CURVE SMOOTH",
"443 63 OFFCURVE",
"446 68 OFFCURVE",
"451 68 CURVE SMOOTH",
"551 68 LINE SMOOTH",
"556 68 OFFCURVE",
"559 63 OFFCURVE",
"559 58 CURVE SMOOTH",
"559 54 OFFCURVE",
"556 49 OFFCURVE",
"551 49 CURVE SMOOTH"
);
}
);
width = 1002;
}
);
unicode = 0054;
},
{
glyphname = U;
lastChange = "2013-05-29 09:21:01 +0100";
layers = (
{
layerId = "89B20C2D-044E-4E5A-A925-3C21DF4F2314";
name = Regular;
paths = (
{
closed = 1;
nodes = (
"559 49 LINE",
"559 45 OFFCURVE",
"555 42 OFFCURVE",
"550 42 CURVE SMOOTH",
"450 42 LINE SMOOTH",
"446 42 OFFCURVE",
"442 45 OFFCURVE",
"442 49 CURVE",
"0 49 LINE",
"0 25 OFFCURVE",
"25 0 OFFCURVE",
"54 0 CURVE SMOOTH",
"946 0 LINE SMOOTH",
"976 0 OFFCURVE",
"1001 25 OFFCURVE",
"1001 49 CURVE"
);
},
{
closed = 1;
nodes = (
"203 133 OFFCURVE",
"192 144 OFFCURVE",
"192 158 CURVE SMOOTH",
"192 516 LINE SMOOTH",
"192 530 OFFCURVE",
"203 541 OFFCURVE",
"217 541 CURVE SMOOTH",
"784 541 LINE SMOOTH",
"797 541 OFFCURVE",
"810 530 OFFCURVE",
"810 516 CURVE SMOOTH",
"810 158 LINE SMOOTH",
"810 144 OFFCURVE",
"797 133 OFFCURVE",
"784 133 CURVE SMOOTH",
"217 133 LINE SMOOTH"
);
},
{
closed = 1;
nodes = (
"192 592 LINE SMOOTH",
"162 592 OFFCURVE",
"139 568 OFFCURVE",
"139 538 CURVE SMOOTH",
"139 138 LINE SMOOTH",
"139 108 OFFCURVE",
"162 83 OFFCURVE",
"192 83 CURVE SMOOTH",
"809 83 LINE SMOOTH",
"839 83 OFFCURVE",
"865 108 OFFCURVE",
"865 138 CURVE SMOOTH",
"865 538 LINE SMOOTH",
"865 568 OFFCURVE",
"839 592 OFFCURVE",
"809 592 CURVE SMOOTH"
);
}
);
width = 1001;
}
);
unicode = 0055;
},
